{"title":"Krewella - Enjoy The Ride [Music Video] 1080p [Sbyky]","uid":9751591,"size":85722105,"categoryP":"video","categoryS":"music_videos","magnet":"?xt=urn:btih:3f028536d4ea0d9a6f94b8869579af3778a84673&amp;dn=Krewella+-+Enjoy+The+Ride+%5BMusic+Video%5D+1080p+%5BSbyky%5D&amp;tr=udp%3A%2F%2Ftracker.openbittorrent.com%3A80&amp;tr=udp%3A%2F%2Fopen.demonii.com%3A1337&amp;tr=udp%3A%2F%2Ftracker.coppersurfer.tk%3A6969&amp;tr=udp%3A%2F%2Fexodus.desync.com%3A6969","seeders":6,"leechers":0,"uploader":"Sbyky","files":1,"time":1394672301,"description":"\n\nGeneral\nComplete name                            : Krewella - Enjoy The Ride [Music Video] 1080p [Sbyky].MP4\nFormat                                   : MPEG-4\nFormat profile                           : Base Media\nCodec ID                                 : isom\nFile size                                : 81.8 MiB\nDuration                                 : 4mn 50s\nOverall bit rate mode                    : Variable\nOverall bit rate                         : 2 364 Kbps\nEncoded date                             : UTC 2014-03-09 16:14:35\nTagged date                              : UTC 2014-03-09 16:14:35\n\nVideo\nID                                       : 1\nFormat                                   : AVC\nFormat/Info                              : Advanced Video Codec\nFormat profile                           : &lt;a class=&quot;__cf_email__&quot; href=&quot;/cdn-cgi/l/email-protection&quot; data-cfemail=&quot;b4fcddd3dcf4f8809a84&quot;&gt;[email&amp;#160;protected]&lt;/a&gt;&lt;script cf-hash='f9e31' type=&quot;text/javascript&quot;&gt;\n/* &lt;![CDATA[ */!function(){try{var t=&quot;currentScript&quot;in document?document.currentScript:function(){for(var t=document.getElementsByTagName(&quot;script&quot;),e=t.length;e--;)if(t[e].getAttribute(&quot;cf-hash&quot;))return t[e]}();if(t&amp;&amp;t.previousSibling){var e,r,n,i,c=t.previousSibling,a=c.getAttribute(&quot;data-cfemail&quot;);if(a){for(e=&quot;&quot;,r=parseInt(a.substr(0,2),16),n=2;a.length-n;n+=2)i=parseInt(a.substr(n,2),16)^r,e+=String.fromCharCode(i);e=document.createTextNode(e),c.parentNode.replaceChild(e,c)}}}catch(u){}}();/* ]]&gt; */&lt;/script&gt;\nFormat settings, CABAC                   : Yes\nFormat settings, ReFrames                : 3 frames\nCodec ID                                 : avc1\nCodec ID/Info                            : Advanced Video Coding\nDuration                                 : 4mn 49s\nDuration_LastFrame                       : -41ms\nBit rate                                 : 2 236 Kbps\nWidth                                    : 1 920 pixels\nHeight                                   : 1 080 pixels\nDisplay aspect ratio                     : 16:9\nFrame rate mode                          : Constant\nFrame rate                               : 23.976 fps\nColor space                              : YUV\nChroma subsampling                       : 4:2:0\nBit depth                                : 8 bits\nScan type                                : Progressive\nBits/(Pixel*Frame)                       : 0.045\nStream size                              : 77.3 MiB (95%)\nEncoded date                             : UTC 2014-03-09 16:14:35\nTagged date                              : UTC 2014-03-09 16:14:35\n\nAudio\nID                                       : 2\nFormat                                   : AAC\nFormat/Info                              : Advanced Audio Codec\nFormat profile                           : LC\nCodec ID                                 : 40\nDuration                                 : 4mn 50s\nBit rate mode                            : Variable\nBit rate                                 : 126 Kbps\nChannel(s)                               : 2 channels\nChannel positions                        : Front: L R\nSampling rate                            : 44.1 KHz\nCompression mode                         : Lossy\nStream size                              : 4.34 MiB (5%)\nEncoded date                             : UTC 2014-03-09 16:14:02\nTagged date                              : UTC 2014-03-09 16:14:02\n\nShared By Sbyky\n","torrent":{"xt":"urn:btih:3f028536d4ea0d9a6f94b8869579af3778a84673","amp;dn":"Krewella+-+Enjoy+The+Ride+%5BMusic+Video%5D+1080p+%5BSbyky%5D","amp;tr":["udp%3A%2F%2Ftracker.openbittorrent.com%3A80","udp%3A%2F%2Fopen.demonii.com%3A1337","udp%3A%2F%2Ftracker.coppersurfer.tk%3A6969","udp%3A%2F%2Fexodus.desync.com%3A6969"],"infoHash":"3f028536d4ea0d9a6f94b8869579af3778a84673","infoHashBuffer":{"type":"Buffer","data":[63,2,133,54,212,234,13,154,111,148,184,134,149,121,175,55,120,168,70,115]},"announce":[],"urlList":[]}}